<svg id="Layer_1" data-name="Layer 1" xmlns="http://www.w3.org/2000/svg" viewBox="0 0 384 146"><defs><style>.cls-1{fill:#fff;}</style></defs><title>scrubber_w</title><path class="cls-1" d="M371.38,961.29h0l-6.81-1.46a7.12,7.12,0,0,1-3.39-1.57,4.09,4.09,0,0,1-1.39-3.21,4.65,4.65,0,0,1,2-3.81,7.53,7.53,0,0,1,4.64-1.46,9.62,9.62,0,0,1,3.64.62,7.68,7.68,0,0,1,2.55,1.67,6.72,6.72,0,0,1,1.52,2.26,12.51,12.51,0,0,1,.55,1.78l9.87-2.23a14.92,14.92,0,0,0-1.17-3.73,14.58,14.58,0,0,0-3.16-4.38,17,17,0,0,0-5.52-3.45,22.69,22.69,0,0,0-8.38-1.37,19.11,19.11,0,0,0-7,1.23,18.4,18.4,0,0,0-5.5,3.27,14.71,14.71,0,0,0-3.62,4.8,13.52,13.52,0,0,0-1.32,5.88,13,13,0,0,0,3.1,8.58c2.06,2.47,5.4,4.23,9.94,5.24l6.33,1.46a8,8,0,0,1,4.24,2,4.5,4.5,0,0,1,1.31,3.22,4.88,4.88,0,0,1-1.73,3.73,7.4,7.4,0,0,1-5.1,1.54c-3,0-5.27-.8-6.79-2.39a8.64,8.64,0,0,1-2.41-4.8l-10.1,2.21a16.08,16.08,0,0,0,1.22,4,14.53,14.53,0,0,0,3.34,4.65,19.23,19.23,0,0,0,5.88,3.7,23.25,23.25,0,0,0,9,1.52,22.15,22.15,0,0,0,8-1.33,17,17,0,0,0,5.67-3.5,13.83,13.83,0,0,0,3.34-4.88,15.06,15.06,0,0,0,1.08-5.56,13.09,13.09,0,0,0-3.42-8.92C379.47,964,376,962.24,371.38,961.29Z" transform="translate(-347.7 -887.11)"/><path class="cls-1" d="M423.62,977.16a11.57,11.57,0,0,1-3.4,2,12.51,12.51,0,0,1-4.51.77,13,13,0,0,1-4.91-.92,11.8,11.8,0,0,1-4.07-2.74,13.13,13.13,0,0,1-2.78-4.46,17.88,17.88,0,0,1,0-11.85,12.8,12.8,0,0,1,2.74-4.41,11.69,11.69,0,0,1,4-2.7,13.31,13.31,0,0,1,4.91-.91c3.3,0,5.86.9,7.61,2.68a13.9,13.9,0,0,1,3.32,5.27l10.65-3.58a22.1,22.1,0,0,0-2.35-5.36,18.92,18.92,0,0,0-4.46-5,23.6,23.6,0,0,0-6.53-3.57,26.29,26.29,0,0,0-18.12.48,23.34,23.34,0,0,0-12.87,13,26.64,26.64,0,0,0-1.86,10,25.56,25.56,0,0,0,1.91,10,24.54,24.54,0,0,0,5.24,7.87,24,24,0,0,0,7.87,5.2,25.49,25.49,0,0,0,9.69,1.86,24,24,0,0,0,8.39-1.38,22.89,22.89,0,0,0,6.47-3.62,20.55,20.55,0,0,0,6.91-10.34L427,972a14.41,14.41,0,0,1-1.11,2.43h0A10.55,10.55,0,0,1,423.62,977.16Z" transform="translate(-347.7 -887.11)"/><path class="cls-1" d="M468.28,942.31a15.54,15.54,0,0,0-3.68,1,12,12,0,0,0-3.46,2.2,11,11,0,0,0-2.65,3.68l-.95,2.09v-8.91H446v46.91h11.94V967.91a18.32,18.32,0,0,1,1.05-6.66,11.89,11.89,0,0,1,2.8-4.32,10.41,10.41,0,0,1,4.09-2.36,18.31,18.31,0,0,1,8.31-.41v-12l-1-.09A22,22,0,0,0,468.28,942.31Z" transform="translate(-347.7 -887.11)"/><path class="cls-1" d="M523.7,981.15V942.41H511.76v27.35a10.42,10.42,0,0,1-2.46,7.15,9,9,0,0,1-7.09,2.8c-3.2,0-5.58-1-7.07-3a11.67,11.67,0,0,1-2.19-7.17V942.41H481v29.78a21.52,21.52,0,0,0,1.19,7.19,16.64,16.64,0,0,0,3.44,5.82,16.92,16.92,0,0,0,5.53,3.92,18.37,18.37,0,0,0,7.54,1.47,19.6,19.6,0,0,0,7.35-1.48,10.75,10.75,0,0,0,5.45-4.7l.93-1.64v1.89c0,1,0,1.94.1,2.89a15.18,15.18,0,0,0,.2,1.77h11.37c-.09-.78-.18-1.78-.26-3C523.75,984.77,523.7,983,523.7,981.15Z" transform="translate(-347.7 -887.11)"/><path class="cls-1" d="M671.07,941a22.24,22.24,0,0,0-8.66,1.76,23,23,0,0,0-7.38,5,23.9,23.9,0,0,0-5.1,7.77,26.6,26.6,0,0,0-1.9,10.23,27.43,27.43,0,0,0,2,10.62,23.73,23.73,0,0,0,5.29,7.91,22.46,22.46,0,0,0,7.71,4.91,25.93,25.93,0,0,0,9.26,1.67,24.89,24.89,0,0,0,7.87-1.19,21.84,21.84,0,0,0,6.24-3.19,20.31,20.31,0,0,0,4.51-4.7,19.75,19.75,0,0,0,2.56-5.27l-9.88-2.94a12.06,12.06,0,0,1-3.74,5,11.74,11.74,0,0,1-7.46,2.15,13.09,13.09,0,0,1-4.75-.86,12.19,12.19,0,0,1-6.64-6,10.81,10.81,0,0,1-1.18-4.55l0-.52h34.3c0-.24,0-.55.08-.95.06-.8.09-1.66.09-2.54,0-7.55-2.05-13.57-6.09-17.87S678.36,941,671.07,941Zm-11,20,0-.53a10.12,10.12,0,0,1,.87-3.48,10.44,10.44,0,0,1,2.2-3.18,11.59,11.59,0,0,1,3.46-2.34,11.33,11.33,0,0,1,4.68-.92,12.74,12.74,0,0,1,4.91.87,10.36,10.36,0,0,1,3.47,2.25,9,9,0,0,1,2.07,3.2,12.31,12.31,0,0,1,.75,3.6l0,.53Z" transform="translate(-347.7 -887.11)"/><path class="cls-1" d="M725.8,942.31a15.67,15.67,0,0,0-3.68,1,12,12,0,0,0-3.46,2.2,10.82,10.82,0,0,0-2.65,3.68l-1,2.09v-8.91H703.51v46.91h11.94V967.91a18.32,18.32,0,0,1,1-6.66,11.89,11.89,0,0,1,2.8-4.32,10.34,10.34,0,0,1,4.09-2.36,18.31,18.31,0,0,1,8.31-.41v-12l-1-.09A22,22,0,0,0,725.8,942.31Z" transform="translate(-347.7 -887.11)"/><path class="cls-1" d="M640.36,955.89a22.33,22.33,0,0,0-4.23-7.76,19.79,19.79,0,0,0-6.79-5.13,21.55,21.55,0,0,0-9.13-1.86,18.84,18.84,0,0,0-8.87,1.94,13.85,13.85,0,0,0-5.21,4.36l-.92,1.41V906.26l-69.32,12.55v56c0,13.12,7.47,26.36,24.17,26.36,14.76,0,23.72-8.86,24.15-23.77l0,0,0-1.3a32.31,32.31,0,0,0-1.43-9.79,22.19,22.19,0,0,0-4.24-7.76,19.75,19.75,0,0,0-6.78-5.13,21.56,21.56,0,0,0-9.14-1.86,18.8,18.8,0,0,0-8.86,1.94,14,14,0,0,0-5.22,4.36l-.92,1.41v-30L593.46,921v43.35c0,13.12,7.47,26.36,24.17,26.36,14.74,0,23.69-8.83,24.15-23.7h0v-1.36A32,32,0,0,0,640.36,955.89Zm-91.92,14.27a13.22,13.22,0,0,1,2.69-4.4,11.17,11.17,0,0,1,4-2.7,12.78,12.78,0,0,1,4.81-.91,12,12,0,0,1,8.77,3.6c2.39,2.4,3.6,5.91,3.6,10.44s-1.21,8.06-3.6,10.48a11.88,11.88,0,0,1-8.77,3.66,12.31,12.31,0,0,1-4.82-1,11.3,11.3,0,0,1-4-2.8,13.94,13.94,0,0,1-2.68-4.45,16.59,16.59,0,0,1-1-5.92A17,17,0,0,1,548.44,970.16Zm77.82,6.09a11.91,11.91,0,0,1-8.78,3.66,12.35,12.35,0,0,1-4.82-1,11.39,11.39,0,0,1-4-2.8,13.74,13.74,0,0,1-2.67-4.45,16.4,16.4,0,0,1-1-5.92,16.79,16.79,0,0,1,1-6,13.21,13.21,0,0,1,2.68-4.4,11.25,11.25,0,0,1,4-2.7,12.85,12.85,0,0,1,4.81-.91,12,12,0,0,1,8.77,3.6c2.39,2.39,3.61,5.91,3.61,10.44S628.65,973.83,626.26,976.25Z" transform="translate(-347.7 -887.11)"/><path class="cls-1" d="M599.36,1001.85a5.72,5.72,0,1,0,5.71,5.71A5.71,5.71,0,0,0,599.36,1001.85Z" transform="translate(-347.7 -887.11)"/><path class="cls-1" d="M535.39,1001.85a5.72,5.72,0,1,0,5.71,5.71A5.72,5.72,0,0,0,535.39,1001.85Z" transform="translate(-347.7 -887.11)"/><ellipse class="cls-1" cx="236.33" cy="135.79" rx="10.2" ry="10.21"/><circle class="cls-1" cx="277.15" cy="19.11" r="5.71"/><path class="cls-1" d="M640.17,931.77A10.21,10.21,0,1,0,630,921.56,10.22,10.22,0,0,0,640.17,931.77Z" transform="translate(-347.7 -887.11)"/><path class="cls-1" d="M517.47,918.38a5.72,5.72,0,1,0-5.71-5.72A5.73,5.73,0,0,0,517.47,918.38Z" transform="translate(-347.7 -887.11)"/><path class="cls-1" d="M532.8,907.53a10.21,10.21,0,1,0-10.2-10.21A10.22,10.22,0,0,0,532.8,907.53Z" transform="translate(-347.7 -887.11)"/></svg>